<?xml version="1.0" encoding="utf-8"?>
<!-- Generator: Adobe Illustrator 27.3.1, SVG Export Plug-In . SVG Version: 6.00 Build 0)  -->
<svg version="1.1" id="Layer_1" xmlns="http://www.w3.org/2000/svg" xmlns:xlink="http://www.w3.org/1999/xlink" x="0px" y="0px"
	 viewBox="0 0 708.1 708.1" style="enable-background:new 0 0 708.1 708.1;" xml:space="preserve">
<style type="text/css">
	.st0{fill:#F3F3F3;}
	.st1{clip-path:url(#SVGID_00000140705651449231524450000011203025699295512748_);}
	.st2{fill:#C09E53;}
	.st3{fill-rule:evenodd;clip-rule:evenodd;fill:#415364;}
	.st4{fill:#C09F54;}
	.st5{fill-rule:evenodd;clip-rule:evenodd;fill:#C09F54;}
	.st6{fill:#415364;}
	.st7{fill-rule:evenodd;clip-rule:evenodd;}
</style>
<rect x="381.4" y="167.7" class="st0" width="86.9" height="62"/>
<rect x="185.8" y="416.3" class="st0" width="83" height="59.2"/>
<g id="Layer_x0020_1_00000126293993890352807710000015328760312382329263_">
	<g>
		<g>
			<path class="st3" d="M459.6,420.2c-2,0-4-1.3-4.7-3.3l-9.3-29.4c-0.7-2.7,0.7-5.3,3.3-6l26.7-8c2.7-0.7,4.7,0.7,6,3.3l9.3,29.4
				c0.7,2-0.7,4.7-3.3,5.3C483.6,412.9,462.3,420.2,459.6,420.2z M533.7,466.9H201.4c-2.7,0-4.7-2-4.7-4.7v-20c0-2.7,2-4.7,4.7-4.7
				h20.7c0-0.7,0-0.7,0-0.7V198.7c0-5.3,4.7-10,10-10h51.4c5.3,0,10,4,10,10v238.2c0,0,0,0,0,0.7h18.7c0-0.7,0-0.7,0-0.7V198.7
				c0-5.3,4-10,9.3-10h52c5.3,0,9.3,4.7,9.3,10.7l47.4-14.7c4.7-1.3,10.7,1.3,12,6.7c6.7,24.7,69.4,223.5,70.1,227.5
				c0.7,5.3-1.3,10-6.7,11.3l-22,7.3h50c2.7,0,4.7,2,4.7,4.7v20C538.4,464.9,536.4,466.9,533.7,466.9z M382.9,437.6h60.7
				l-60.7-196.2v195.5C382.9,436.9,382.9,436.9,382.9,437.6z M206.1,457.6H529v-10.7H206.1V457.6z M373.6,211.4
				c-0.7-2.7,0.7-12.7,0-13.3h-52c0,0,0,0,0,0.7v238.2c0,0,0,0,0,0.7h52c0-0.7,0-0.7,0-0.7V211.4z M382.9,209.4
				c6,20.7,70.7,226.2,70.7,227.5c2,0,47.4-15.3,49.4-15.3c0-2.7-70.1-225.5-70.1-227.5c-0.7-0.7-48,14.7-50,14.7V209.4z M373.6,198
				L373.6,198z M232.1,437.6h51.4c0.7,0,0.7-0.7,0.7-0.7V198.7c0-0.7,0-0.7-0.7-0.7h-51.4c0,0-0.7,0-0.7,0.7v238.2L232.1,437.6z
				 M231.4,436.9L231.4,436.9z M231.4,198.7L231.4,198.7z M232.1,198L232.1,198L232.1,198z M271.5,222.1h-26.7c-6,0-6-9.3,0-9.3
				h26.7C277.5,212.7,277.5,222.1,271.5,222.1z M271.5,240.7h-26.7c-6,0-6-9.3,0-9.3h26.7C277.5,231.4,277.5,240.7,271.5,240.7z
				 M271.5,260.1h-26.7c-6,0-6-9.3,0-9.3h26.7C277.5,250.7,277.5,260.1,271.5,260.1z M271.5,278.8h-26.7c-6,0-6-9.3,0-9.3h26.7
				C277.5,269.4,277.5,278.8,271.5,278.8z M272.1,422.9h-28c-2.7,0-4.7-2.7-4.7-4.7v-30.7c0-2.7,2-4.7,4.7-4.7h28
				c2.7,0,4.7,2,4.7,4.7v30.7C276.8,420.2,274.8,422.9,272.1,422.9z M248.8,413.5h18.7v-21.4h-18.7V413.5z M360.9,222.1h-26.7
				c-6,0-6-9.3,0-9.3h26.7C366.9,212.7,366.9,222.1,360.9,222.1z M360.9,240.7h-26.7c-6,0-6-9.3,0-9.3h26.7
				C366.9,231.4,366.9,240.7,360.9,240.7z M360.9,260.1h-26.7c-6,0-6-9.3,0-9.3h26.7C366.9,250.7,366.9,260.1,360.9,260.1z
				 M360.9,278.8h-26.7c-6,0-6-9.3,0-9.3h26.7C366.9,269.4,366.9,278.8,360.9,278.8z M361.5,422.9h-28c-2.7,0-4.7-2.7-4.7-4.7v-30.7
				c0-2.7,2-4.7,4.7-4.7h28c2.7,0,4.7,2,4.7,4.7v30.7C366.2,420.2,364.2,422.9,361.5,422.9z M338.2,413.5h18.7v-21.4h-18.7V413.5z
				 M400.9,228.1c-5.3,0-6.7-8-1.3-9.3l25.4-8c5.3-2,8.7,7.3,2.7,8.7C423.6,220.7,402.9,228.1,400.9,228.1z M406.2,246.1
				c-5.3,0-6.7-8-1.3-9.3l25.4-7.3c6-2,8.7,7.3,2.7,8.7C428.9,239.4,408.2,246.1,406.2,246.1z M412.3,264.8c-5.3,0-6.7-8-1.3-9.3
				l25.4-8c5.3-2,8.7,7.3,2.7,8.7C434.9,257.4,414.3,264.8,412.3,264.8z M417.6,282.8c-5.3,0-6.7-8-1.3-9.3l25.4-8
				c5.3-2,8.7,7.3,2.7,8.7C440.3,275.4,419.6,282.8,417.6,282.8z M456.3,388.9l6.7,20.7l17.3-5.3l-6.7-20.7L456.3,388.9z"/>
		</g>
	</g>
</g>
<g id="Layer_x0020_1_00000093896939103068746920000006064218923970921348_">
	<g>
		<g>
			<g>
				<g>
					<path class="st4" d="M459.6,420.2c2.7,0,24-7.3,28-8.7c2.7-0.7,4-3.3,3.3-5.3l-9.3-29.4c-1.3-2.7-3.3-4-6-3.3l-26.7,8
						c-2.7,0.7-4,3.3-3.3,6l9.3,29.4C455.6,418.9,457.6,420.2,459.6,420.2z M473.6,383.5l6.7,20.7l-17.3,5.3l-6.7-20.7L473.6,383.5z
						"/>
				</g>
			</g>
			<g>
				<path class="st4" d="M244.8,240.7h26.7c6,0,6-9.3,0-9.3h-26.7C238.8,231.4,238.8,240.7,244.8,240.7z"/>
			</g>
			<g>
				<path class="st4" d="M441.6,265.4l-25.4,8c-5.3,1.3-4,9.3,1.3,9.3c2,0,22.7-7.3,26.7-8.7C450.3,272.8,446.9,263.4,441.6,265.4z"
					/>
			</g>
			<g>
				<g>
					<path class="st4" d="M239.4,418.2c0,2,2,4.7,4.7,4.7h28c2.7,0,4.7-2.7,4.7-4.7v-30.7c0-2.7-2-4.7-4.7-4.7h-28
						c-2.7,0-4.7,2-4.7,4.7V418.2z M248.8,392.2h18.7v21.4h-18.7V392.2z"/>
				</g>
			</g>
			<g>
				<path class="st4" d="M436.3,247.4l-25.4,8c-5.3,1.3-4,9.3,1.3,9.3c2,0,22.7-7.3,26.7-8.7C444.9,254.7,441.6,245.4,436.3,247.4z"
					/>
			</g>
			<g>
				<path class="st4" d="M424.9,210.7l-25.4,8c-5.3,1.3-4,9.3,1.3,9.3c2,0,22.7-7.3,26.7-8.7C433.6,218.1,430.3,208.7,424.9,210.7z"
					/>
			</g>
			<g>
				<path class="st4" d="M430.3,229.4l-25.4,7.3c-5.3,1.3-4,9.3,1.3,9.3c2,0,22.7-6.7,26.7-8C438.9,236.7,436.3,227.4,430.3,229.4z"
					/>
			</g>
			<g>
				<g>
					<path class="st4" d="M361.5,382.9h-28c-2.7,0-4.7,2-4.7,4.7v30.7c0,2,2,4.7,4.7,4.7h28c2.7,0,4.7-2.7,4.7-4.7v-30.7
						C366.2,384.9,364.2,382.9,361.5,382.9z M356.9,413.5h-18.7v-21.4h18.7V413.5z"/>
				</g>
			</g>
			<g>
				<path class="st4" d="M334.2,222.1h26.7c6,0,6-9.3,0-9.3h-26.7C328.2,212.7,328.2,222.1,334.2,222.1z"/>
			</g>
			<g>
				<path class="st4" d="M244.8,278.8h26.7c6,0,6-9.3,0-9.3h-26.7C238.8,269.4,238.8,278.8,244.8,278.8z"/>
			</g>
			<g>
				<path class="st4" d="M244.8,260.1h26.7c6,0,6-9.3,0-9.3h-26.7C238.8,250.7,238.8,260.1,244.8,260.1z"/>
			</g>
			<g>
				<path class="st4" d="M244.8,222.1h26.7c6,0,6-9.3,0-9.3h-26.7C238.8,212.7,238.8,222.1,244.8,222.1z"/>
			</g>
			<g>
				<path class="st4" d="M334.2,278.8h26.7c6,0,6-9.3,0-9.3h-26.7C328.2,269.4,328.2,278.8,334.2,278.8z"/>
			</g>
			<g>
				<path class="st4" d="M334.2,240.7h26.7c6,0,6-9.3,0-9.3h-26.7C328.2,231.4,328.2,240.7,334.2,240.7z"/>
			</g>
			<g>
				<path class="st4" d="M334.2,260.1h26.7c6,0,6-9.3,0-9.3h-26.7C328.2,250.7,328.2,260.1,334.2,260.1z"/>
			</g>
		</g>
	</g>
</g>
<g>
	<path class="st2" d="M354,674.9L33.2,354L354,33.2L674.9,354L354,674.9z M46.4,354L354,661.7L661.7,354L354,46.4L46.4,354z"/>
</g>
</svg>
