<?xml version="1.0" encoding="utf-8"?>
<!-- Generator: Adobe Illustrator 27.3.1, SVG Export Plug-In . SVG Version: 6.00 Build 0)  -->
<svg version="1.1" id="Layer_1" xmlns="http://www.w3.org/2000/svg" xmlns:xlink="http://www.w3.org/1999/xlink" x="0px" y="0px"
	 viewBox="0 0 708.1 708.1" style="enable-background:new 0 0 708.1 708.1;" xml:space="preserve">
<style type="text/css">
	.st0{fill:#F3F3F3;}
	.st1{clip-path:url(#SVGID_00000062183095337849544660000008283387807085579956_);}
	.st2{fill:#C09E53;}
	.st3{fill-rule:evenodd;clip-rule:evenodd;fill:#415364;}
	.st4{fill:#C09F54;}
	.st5{fill-rule:evenodd;clip-rule:evenodd;fill:#C09F54;}
	.st6{fill:#415364;}
	.st7{fill-rule:evenodd;clip-rule:evenodd;}
</style>
<rect x="454.8" y="245.3" class="st0" width="86.9" height="62"/>
<rect x="185.8" y="416.3" class="st0" width="83" height="59.2"/>
<g>
	<path class="st2" d="M354,674.9L33.2,354L354,33.2L674.9,354L354,674.9z M46.4,354L354,661.7L661.7,354L354,46.4L46.4,354z"/>
</g>
<g>
	<path class="st6" d="M278.2,559.9c-0.9-0.4-1.9-0.8-2.8-1.2c-7.6-2.8-12.5-8.1-14-16.1c-2.5-13.5-4.6-27.1-6.9-40.6
		c-1.5-8.6-5.8-15.5-13.2-20.1c-12.3-7.6-18.9-18.6-21.3-32.8c-2.1-13.2-9.4-23.6-20.3-31.5c-14.4-10.5-23.4-24.6-25.8-42.3
		c-1.9-13.7-5.4-26.9-11.6-39.3c-1.4-2.8-2-5.9-2.6-9c-2.1-11.8,6.4-36.2,15.3-44.3c5.6-5.1,12.3-8,19.8-8.8
		c7.5-0.8,12.1-4.2,14.5-11.8c4.5-13.9,21.4-18.3,33.3-9.3c13.1,10,23.9,22.1,32.8,36c10.3,16.2,24.4,28,42,35.6
		c1,0.4,2.1,0.8,3.6,1.4c0-1.8,0-3.1,0-4.5c0-34.7,0.2-69.5-0.1-104.2c-0.1-9.1,3.9-16.2,15.5-15.2c2.4,0.2,4.9,0,7.3,0
		c7,0.1,11.8,4.8,12,11.8c0.1,3.6,0,7.2,0,11.2c1.6,0,3,0,4.3,0c47.6,0,95.1,0.1,142.7-0.1c7.2,0,12.2,2.3,14.7,9.2
		c0,44.1,0,88.2,0,132.2c-2.6,6.8-7.7,9.1-14.8,9c-30.1-0.2-60.1-0.1-90.2-0.1c-1.2,0-2.4,0-3.6,0c7.1,6.1,14.2,11.6,21.4,16.9
		c8.5,6.2,17.8,7.7,27.8,4.4c8.5-2.8,17-5.7,25.5-8.5c11.6-3.8,21.6,1.2,25.4,12.8c3,9.2,5.7,18.4,8.5,27.6c0,3.7,0,7.5,0,11.2
		c-0.9,3.6-1.9,7.1-2.7,10.7c-9.7,41.4-34.8,68.5-75.5,81c-11.2,3.5-21.7,8.5-30.8,15.9c-6.8,5.5-13.7,10.8-22.5,12.7
		c-3.3,0-6.5,0-9.8,0c-8.9-1.9-15.9-7.4-23.2-12.2c-3.2-2.1-6.5-4.1-9.5-6.4c-7.2-5.5-14.1-5.4-21.9-0.8
		c-11.6,6.9-23.8,13-35.7,19.4C283.4,559.9,280.8,559.9,278.2,559.9z M355.8,375.1c0,1.9,0,3.3,0,4.7c0,20.9,0,41.7,0,62.6
		c0,9.1-4.4,13.4-13.6,13.4c-2.3,0-4.7,0-7,0c-10.1,0-14.2-4.1-14.2-14.2c0-33.3,0-66.7,0.1-100c0-2.5-0.7-3.7-3-4.6
		c-23.7-9-41.9-24.6-55.2-46.3c-7-11.4-16.5-20.8-27.2-28.9c-6.1-4.6-13.7-2.4-15.9,5c-3.3,10.7-10.5,16.4-21.3,18
		c-1.5,0.2-3,0.5-4.5,0.8c-8.5,1.7-14.2,6.7-17.1,14.8c-1.2,3.4-2.1,6.9-3.5,10.2c-3.5,8.6-2.8,16.6,1.4,24.9
		c5.2,10.2,8.5,21.2,9.7,32.7c1.8,17.5,9.6,31.2,23.9,41.6c12.7,9.2,20.5,22,23.1,37.5c1.9,11.1,7,19.3,16.6,25.4
		c9.7,6.1,15.6,15.3,17.7,26.6c2.4,13.2,4.4,26.4,6.8,39.6c1.6,9,8.2,12,16.2,7.5c9.8-5.6,19.6-11.2,29.4-16.8
		c10.1-5.7,20-5.5,29.6,0.9c7.2,4.8,14.3,9.6,21.5,14.3c8.1,5.3,17.5,4.8,25.1-1.1c0.8-0.6,1.7-1.3,2.5-1.9
		c12.5-10.5,26.6-17.7,42.3-22.4c19.2-5.8,34.8-17,47.1-32.8c10.2-13.1,15.2-28.4,18.7-44.3c1.5-6.8,1.3-13.4-0.9-20
		c-1.9-5.9-3.9-11.7-5.9-17.5c-2-5.7-5.3-7.4-11.1-5.5c-8.1,2.6-16.1,5.3-24.2,8.1c-14.6,4.9-28,2.8-40.3-6.5
		c-10.6-8-21.2-16-31.9-23.9c-0.9-0.7-2-1.5-3-1.5C377.2,375.1,366.7,375.1,355.8,375.1z M332.9,236.6c0,42.3,0,84.4,0,126.5
		c57.7,0,115.2,0,172.8,0c0-42.3,0-84.3,0-126.5C448.1,236.6,390.7,236.6,332.9,236.6z M333,375.2c0,23.3,0,46.1,0,68.9
		c3.9,0,7.4,0,10.8,0c0-23.1,0-46,0-68.9C340.1,375.2,336.6,375.2,333,375.2z M343.9,224.6c0-3.9,0-7.5,0-11.1c-3.8,0-7.3,0-11,0
		c0,3.8,0,7.4,0,11.1C336.6,224.6,340.1,224.6,343.9,224.6z"/>
	<path class="st4" d="M459.7,340.3c0,4,0,7.6,0,11.5c-4,0-7.6,0-11.5,0c0-3.8,0-7.5,0-11.5c-1.8,0-3.1,0-4.5,0
		c-23.4,0-46.8,0.1-70.3,0c-18.5-0.1-31.6-15.6-28.9-34.4c34.4,0,68.8,0,103.6,0c0-4,0-7.7,0-11.6c4,0,7.5,0,11.5,0
		c0,3.7,0,7.4,0,11.5c7.1,0,13.7,0.3,20.3-0.1c10.3-0.7,15.3,6,14.5,14.7c-0.2,2.7,0,5.4,0,8c-0.1,7.1-4.8,11.8-11.9,11.9
		C475,340.4,467.6,340.3,459.7,340.3z M357.1,317.4c0.2,0.8,0.3,1.5,0.6,2.1c3.5,6.4,9.1,9.4,16.4,9.4c23.7,0,47.3,0,71,0
		c1,0,2-0.2,2.9-0.2c0-3.9,0-7.5,0-11.2C417.6,317.4,387.5,317.4,357.1,317.4z M460,317.3c0,4,0,7.6,0,11.3c7.7,0,15.1,0,22.5,0
		c0-3.9,0-7.5,0-11.3C474.8,317.3,467.5,317.3,460,317.3z"/>
	<path class="st4" d="M361.7,259.8c3.8,0,7.4,0,11.1,0c0,3.8,0,7.3,0,11.1c-3.8,0-7.4,0-11.1,0C361.7,267,361.7,263.4,361.7,259.8z"
		/>
	<path class="st4" d="M442.2,270.8c-3.8,0-7.3,0-11.2,0c0-3.6,0-7.2,0-11.1c3.7,0,7.3,0,11.2,0C442.2,263.6,442.2,267.1,442.2,270.8
		z"/>
	<path class="st4" d="M396.5,259.7c3.7,0,7.3,0,11,0c0,3.7,0,7.3,0,11.1c-3.6,0-7.2,0-11,0C396.5,267.3,396.5,263.7,396.5,259.7z"/>
	<path class="st4" d="M465.8,259.7c3.7,0,7.3,0,11,0c0,3.7,0,7.3,0,11.1c-3.6,0-7.2,0-11,0C465.8,267.3,465.8,263.7,465.8,259.7z"/>
</g>
</svg>
