<?xml version="1.0" encoding="utf-8"?>
<!-- Generator: Adobe Illustrator 27.3.1, SVG Export Plug-In . SVG Version: 6.00 Build 0)  -->
<svg version="1.1" id="Layer_1" xmlns="http://www.w3.org/2000/svg" xmlns:xlink="http://www.w3.org/1999/xlink" x="0px" y="0px"
	 viewBox="0 0 708.1 708.1" style="enable-background:new 0 0 708.1 708.1;" xml:space="preserve">
<style type="text/css">
	.st0{fill:#F3F3F3;}
	.st1{clip-path:url(#SVGID_00000091011771648030526050000012687307660678489217_);}
	.st2{fill:#C09E53;}
	.st3{fill-rule:evenodd;clip-rule:evenodd;fill:#415364;}
	.st4{fill:#C09F54;}
	.st5{fill-rule:evenodd;clip-rule:evenodd;fill:#C09F54;}
	.st6{fill:#415364;}
	.st7{fill-rule:evenodd;clip-rule:evenodd;}
</style>
<rect x="443" y="242.5" class="st0" width="86.9" height="62"/>
<rect x="224.3" y="463.3" class="st0" width="83" height="59.2"/>
<g>
	<path class="st2" d="M354,674.9L33.2,354L354,33.2L674.9,354L354,674.9z M46.4,354L354,661.7L661.7,354L354,46.4L46.4,354z"/>
</g>
<g>
	<g id="Global-2_00000085240427730215608430000009469648376538951852_">
		<path class="st6" d="M482.9,211.9c-8.4,0-15.2,6.8-15.2,15.2v152.1c0,0.4,0.1,0.8,0.2,1.2l10.1,40.6c0.7,2.7,3.4,4.4,6.2,3.7
			c1.8-0.5,3.2-1.9,3.7-3.7l10.1-40.6c0.1-0.4,0.2-0.8,0.2-1.2V227.2C498.1,218.8,491.3,211.9,482.9,211.9z M482.9,222.1
			c2.8,0,5.1,2.3,5.1,5.1v147h-10.1v-147C477.8,224.4,480.1,222.1,482.9,222.1z M482.9,398.9l-3.6-14.6h7.3L482.9,398.9z"/>
		<path class="st6" d="M457.5,425.2v-76.3c0-2.8-2.3-5.1-5.1-5.1h-17c4.5-11.3,6.8-23.3,6.8-35.5c0-53.2-43.1-96.3-96.3-96.3
			s-96.3,43.1-96.3,96.3c0,12.2,2.3,24.2,6.8,35.5h-17c-25.2,0.1-45.6,20.6-45.5,45.8c0.1,23.1,17.4,42.5,40.4,45.2v76.3
			c0,2.8,2.3,5.1,5.1,5.1h212.9c25.2-0.1,45.6-20.6,45.5-45.8C497.9,447.2,480.5,427.8,457.5,425.2z M383.7,343.8
			c1.6-10.1,2.5-20.2,2.7-30.4h45.5c-0.6,10.5-3.1,20.8-7.5,30.4H383.7z M318.5,343.8c-1.7-10.1-2.6-20.2-2.8-30.4h60.6
			c-0.2,10.2-1.1,20.4-2.8,30.4H318.5z M346,222.1c9,0,18.7,14,24.7,37c-8,2.4-16.3,3.6-24.7,3.6c-8.4,0-16.7-1.2-24.7-3.6
			C327.2,236.1,336.9,222.1,346,222.1z M311.7,255.5c-7.6-3.3-14.8-7.7-21.1-13.1c10.1-8.5,21.9-14.5,34.7-17.6
			C318.9,234.1,314.3,244.5,311.7,255.5z M366.7,224.7c12.8,3.2,24.6,9.2,34.7,17.7c-6.4,5.4-13.5,9.8-21.1,13.1
			C377.6,244.5,373,234.1,366.7,224.7z M346,272.8c9.1,0,18.1-1.3,26.9-3.8c2.1,11.3,3.3,22.7,3.4,34.2h-60.6
			c0.2-11.5,1.4-22.9,3.5-34.2C327.8,271.5,336.9,272.8,346,272.8z M431.9,303.2h-45.5c-0.2-12.6-1.5-25.2-3.9-37.6
			c9.5-4,18.4-9.4,26.2-16.2C422.5,264,430.7,283.1,431.9,303.2z M283.2,249.4c7.8,6.8,16.6,12.2,26.2,16.2
			c-2.4,12.4-3.7,25-3.9,37.6H260C261.2,283.1,269.4,264,283.2,249.4z M260.1,313.3h45.5c0.2,10.2,1.1,20.4,2.7,30.4h-40.6
			C263.2,334.2,260.7,323.9,260.1,313.3z M204,389.4c0-19.6,15.9-35.5,35.5-35.5h207.9v71H239.5C219.9,424.9,204,409,204,389.4z
			 M452.4,506H244.6v-71h207.9c19.6,0,35.5,15.9,35.5,35.5C487.9,490.1,472,506,452.4,506z"/>
	</g>
	<polyline class="st4" points="467.7,475.6 264.9,475.6 264.9,465.5 467.7,465.5 	"/>
	<polyline class="st4" points="427.1,394.5 244.6,394.5 244.6,384.3 427.1,384.3 	"/>
	<polyline class="st4" points="457.5,445.2 457.5,455.3 264.9,455.3 264.9,445.2 	"/>
	<rect x="264.9" y="485.7" class="st4" width="192.7" height="10.1"/>
	<rect x="224.3" y="384.3" class="st4" width="10.1" height="10.1"/>
</g>
</svg>
