<?xml version="1.0" encoding="utf-8"?>
<!-- Generator: Adobe Illustrator 27.3.1, SVG Export Plug-In . SVG Version: 6.00 Build 0)  -->
<svg version="1.1" id="Layer_1" xmlns="http://www.w3.org/2000/svg" xmlns:xlink="http://www.w3.org/1999/xlink" x="0px" y="0px"
	 viewBox="0 0 708.1 708.1" style="enable-background:new 0 0 708.1 708.1;" xml:space="preserve">
<style type="text/css">
	.st0{fill:#F3F3F3;}
	.st1{clip-path:url(#SVGID_00000048471833574520200780000004501848696820314516_);}
	.st2{fill:#C09E53;}
	.st3{fill-rule:evenodd;clip-rule:evenodd;fill:#415364;}
	.st4{fill:#C09F54;}
	.st5{fill-rule:evenodd;clip-rule:evenodd;fill:#C09F54;}
	.st6{fill:#415364;}
	.st7{fill-rule:evenodd;clip-rule:evenodd;}
</style>
<rect x="411.4" y="243" class="st0" width="86.9" height="62"/>
<rect x="185.8" y="416.3" class="st0" width="83" height="59.2"/>
<g>
	<path class="st2" d="M354,674.9L33.2,354L354,33.2L674.9,354L354,674.9z M46.4,354L354,661.7L661.7,354L354,46.4L46.4,354z"/>
</g>
<g>
	<g id="Layer_x0020_1_00000119103047034700866000000017103395149017711792_">
		<path class="st3" d="M470.7,491.5h-231c-16.2,0-29.9-13.7-29.9-29.9V220.5c0-2.2,1.7-3.9,3.9-3.9h232.7c2.2,0,3.9,1.7,3.9,3.9V309
			h20.3c2.2,0,3.9,1.7,3.9,3.9v37.2h19.7c2.2,0,3.9,1.7,3.9,3.9v109.9c0,15.2-12.3,27.6-27.5,27.6H470.7z M450.4,316.9V354v109.9
			c0,10.9,9.1,19.7,20.3,19.7c10.7,0,19.7-9,19.7-19.7V358h-15.8v105.4c0,2.2-1.7,3.9-3.9,3.9c-2.2,0-3.9-1.7-3.9-3.9V354.1v0v0
			v-37.1H450.4z M442.5,354v-41.1v-88.5H217.7v237.2c0,11.9,10.1,22,22,22H451c-5.2-5-8.5-12-8.5-19.7V354z"/>
	</g>
	<path class="st5" d="M425.4,265.6H234.6c-2.2,0-3.9,1.7-3.9,3.9v47.7c0,2.2,1.7,3.9,3.9,3.9h190.8c2.2,0,3.9-1.8,3.9-3.9v-47.7
		C429.4,267.3,427.6,265.6,425.4,265.6z M421.5,313.3h-183v-39.8h183V313.3z"/>
	<path class="st5" d="M282.3,400.2h-47.7c-2.2,0-3.9,1.7-3.9,3.9V444c0,2.2,1.7,3.9,3.9,3.9h47.7c2.1,0,3.9-1.8,3.9-3.9v-39.8
		C286.3,402,284.5,400.2,282.3,400.2z M278.4,440.1h-39.8v-31.9h39.8V440.1z"/>
	<path class="st5" d="M425.7,400.2H308.4c-2.2,0-3.9,1.7-3.9,3.9V444c0,2.2,1.7,3.9,3.9,3.9h117.3c2.1,0,3.9-1.8,3.9-3.9v-39.8
		C429.6,402,427.9,400.2,425.7,400.2z M421.7,440.1H312.3v-31.9h109.4V440.1z"/>
	<path class="st5" d="M425.6,351.2h-191c-2.2,0-3.9-1.7-3.9-3.9c0-2.2,1.7-3.9,3.9-3.9h191c2.2,0,3.9,1.7,3.9,3.9
		C429.5,349.5,427.8,351.2,425.6,351.2z"/>
	<path class="st5" d="M425.6,378.8h-191c-2.2,0-3.9-1.7-3.9-3.9c0-2.2,1.7-3.9,3.9-3.9h191c2.2,0,3.9,1.7,3.9,3.9
		C429.5,377.1,427.8,378.8,425.6,378.8z"/>
</g>
</svg>
