<?xml version="1.0" encoding="utf-8"?>
<!-- Generator: Adobe Illustrator 27.3.1, SVG Export Plug-In . SVG Version: 6.00 Build 0)  -->
<svg version="1.1" id="Layer_1" xmlns="http://www.w3.org/2000/svg" xmlns:xlink="http://www.w3.org/1999/xlink" x="0px" y="0px"
	 viewBox="0 0 708.1 708.1" style="enable-background:new 0 0 708.1 708.1;" xml:space="preserve">
<style type="text/css">
	.st0{fill:#F3F3F3;}
	.st1{clip-path:url(#SVGID_00000038412062341143254830000006415296032469300104_);}
	.st2{fill:#C09E53;}
	.st3{fill-rule:evenodd;clip-rule:evenodd;fill:#415364;}
	.st4{fill:#C09F54;}
	.st5{fill-rule:evenodd;clip-rule:evenodd;fill:#C09F54;}
	.st6{fill:#415364;}
	.st7{fill-rule:evenodd;clip-rule:evenodd;}
</style>
<rect x="410.2" y="211.9" class="st0" width="86.9" height="62"/>
<rect x="185.8" y="416.3" class="st0" width="83" height="59.2"/>
<g>
	<path class="st2" d="M354,674.9L33.2,354L354,33.2L674.9,354L354,674.9z M46.4,354L354,661.7L661.7,354L354,46.4L46.4,354z"/>
</g>
<g>
	<g id="Layer_x0020_1_00000000924043147049940990000015520661853366594230_">
		<g id="_628150768_00000103972596792473996220000008809214792907815313_">
			<g>
				<path class="st3" d="M480.7,485.5H234c-12.4,0-22.6-10.2-22.6-22.8V252.5c0-12.4,10.2-22.8,22.6-22.8h215.2c2.5,0,4.5,2,4.5,4.5
					v127.7c0,2.5-2,4.5-4.5,4.5s-4.5-2-4.5-4.5V238.4H234c-7.7,0-13.9,6.2-13.9,14.1V463c0,7.7,6.4,14.1,13.9,14.1h246.6
					c2.5,0,4.5,2,4.5,4.5S482.9,485.5,480.7,485.5z"/>
			</g>
			<g>
				<path class="st3" d="M480.7,485.5c-19.8,0-35.7-16.1-35.7-35.7v-88c0-2.5,2-4.5,4.5-4.5h51.3c8.7,0,15.9,7.2,15.9,15.8v76.9
					C516.4,469.7,500.3,485.5,480.7,485.5z M453.7,366v83.8c0,14.9,12.1,27,27,27c14.9,0,27-12.1,27-27V373c0-3.7-3.2-7.2-7.2-7.2
					h-46.9V366z"/>
			</g>
		</g>
	</g>
	<path class="st5" d="M330.5,296.4v-28.7c0-8.2-7-15.1-15.4-15.1h-67.2c-8.2,0-15.1,6.7-15.1,15.1v28.7c0,8.2,6.9,15.1,15.1,15.1
		h67.4C323.8,311.5,330.7,304.5,330.5,296.4z M321.8,296.1c0,3.5-3,6.4-6.7,6.4h-67.2c-3.5,0-6.4-3-6.4-6.4v-28.7
		c0-3.5,2.7-6.4,6.4-6.4v0.2h67.2c3.7,0,6.7,2.7,6.7,6.5V296.1z"/>
	<g>
		<g>
			<g>
				<path class="st5" d="M427.9,260.9h-78.1c-2.4,0-4.5-2-4.5-4.5c0-2.5,2-4.5,4.5-4.5h78.1c2.5,0,4.5,2,4.5,4.5
					C432.3,258.9,430.1,260.9,427.9,260.9z"/>
			</g>
			<g>
				<path class="st5" d="M427.9,277.3c2.5,0,4.5,2,4.5,4.5c0,2.5-2.2,4.5-4.5,4.5h-78.1c-2.4,0-4.5-2-4.5-4.5c0-2.5,2-4.5,4.5-4.5"
					/>
			</g>
			<g>
				<path class="st5" d="M427.9,311.5h-78.1c-2.4,0-4.5-2-4.5-4.5c0-2.5,2-4.5,4.5-4.5h78.1c2.5,0,4.5,2,4.5,4.5
					C432.3,309.5,430.1,311.5,427.9,311.5z"/>
			</g>
		</g>
	</g>
	<g>
		<g>
			<g>
				<path class="st5" d="M427.9,336.8h-78.1c-2.4,0-4.5-2-4.5-4.5c0-2.4,2-4.5,4.5-4.5h78.1c2.5,0,4.5,2,4.5,4.5
					C432.3,334.8,430.1,336.8,427.9,336.8z"/>
			</g>
			<g>
				<path class="st5" d="M427.9,362.1h-78.1c-2.4,0-4.5-2-4.5-4.5c0-2.5,2-4.5,4.5-4.5h78.1c2.5,0,4.5,2,4.5,4.5
					C432.3,360.1,430.1,362.1,427.9,362.1z"/>
			</g>
			<g>
				<path class="st5" d="M427.9,387.4h-78.1c-2.4,0-4.5-2-4.5-4.5c0-2.5,2-4.5,4.5-4.5h78.1c2.5,0,4.5,2,4.5,4.5
					C432.3,385.4,430.1,387.4,427.9,387.4z"/>
			</g>
			<g>
				<path class="st5" d="M427.9,412.6h-78.1c-2.4,0-4.5-2-4.5-4.5c0-2.5,2-4.5,4.5-4.5h78.1c2.5,0,4.5,2,4.5,4.5
					C432.3,410.7,430.1,412.6,427.9,412.6z"/>
			</g>
			<g>
				<path class="st5" d="M427.9,437.7h-78.1c-2.4,0-4.5-2-4.5-4.5c0-2.4,2-4.5,4.5-4.5h78.1c2.5,0,4.5,2,4.5,4.5
					C432.3,435.7,430.1,437.7,427.9,437.7z"/>
			</g>
			<g>
				<path class="st5" d="M427.9,463.2h-78.1c-2.4,0-4.5-2-4.5-4.5c0-2.4,2-4.5,4.5-4.5h78.1c2.5,0,4.5,2,4.5,4.5
					C432.3,461.2,430.1,463.2,427.9,463.2z"/>
			</g>
		</g>
	</g>
	<g>
		<g>
			<g>
				<path class="st5" d="M320.8,336.8h-78.1c-2.5,0-4.5-2-4.5-4.5c0-2.4,2-4.5,4.5-4.5h78.1c2.4,0,4.5,2,4.5,4.5
					C325.3,334.8,323,336.8,320.8,336.8z"/>
			</g>
			<g>
				<path class="st5" d="M320.8,362.1h-78.1c-2.5,0-4.5-2-4.5-4.5c0-2.5,2-4.5,4.5-4.5h78.1c2.4,0,4.5,2,4.5,4.5
					C325.3,360.1,323,362.1,320.8,362.1z"/>
			</g>
			<g>
				<path class="st5" d="M320.8,387.4h-78.1c-2.5,0-4.5-2-4.5-4.5c0-2.5,2-4.5,4.5-4.5h78.1c2.4,0,4.5,2,4.5,4.5
					C325.3,385.4,323,387.4,320.8,387.4z"/>
			</g>
			<g>
				<path class="st5" d="M320.8,412.6h-78.1c-2.5,0-4.5-2-4.5-4.5c0-2.5,2-4.5,4.5-4.5h78.1c2.4,0,4.5,2,4.5,4.5
					C325.3,410.7,323,412.6,320.8,412.6z"/>
			</g>
			<g>
				<path class="st5" d="M320.8,437.7h-78.1c-2.5,0-4.5-2-4.5-4.5c0-2.4,2-4.5,4.5-4.5h78.1c2.4,0,4.5,2,4.5,4.5
					C325.3,435.7,323,437.7,320.8,437.7z"/>
			</g>
			<g>
				<path class="st5" d="M320.8,463.2h-78.1c-2.5,0-4.5-2-4.5-4.5c0-2.4,2-4.5,4.5-4.5h78.1c2.4,0,4.5,2,4.5,4.5
					C325.3,461.2,323,463.2,320.8,463.2z"/>
			</g>
		</g>
	</g>
</g>
</svg>
