<?xml version="1.0" encoding="utf-8"?>
<!-- Generator: Adobe Illustrator 27.3.1, SVG Export Plug-In . SVG Version: 6.00 Build 0)  -->
<svg version="1.1" id="Layer_1" xmlns="http://www.w3.org/2000/svg" xmlns:xlink="http://www.w3.org/1999/xlink" x="0px" y="0px"
	 viewBox="0 0 708.1 708.1" style="enable-background:new 0 0 708.1 708.1;" xml:space="preserve">
<style type="text/css">
	.st0{fill:#F3F3F3;}
	.st1{clip-path:url(#SVGID_00000103983188616180335800000013960785395026854836_);}
	.st2{fill:#C09E53;}
	.st3{fill-rule:evenodd;clip-rule:evenodd;fill:#415364;}
	.st4{fill:#C09F54;}
	.st5{fill-rule:evenodd;clip-rule:evenodd;fill:#C09F54;}
	.st6{fill:#415364;}
	.st7{fill-rule:evenodd;clip-rule:evenodd;}
</style>
<rect x="407.6" y="205.6" class="st0" width="86.9" height="62"/>
<rect x="224.3" y="463.3" class="st0" width="83" height="59.2"/>
<g>
	<path class="st2" d="M354,674.9L33.2,354L354,33.2L674.9,354L354,674.9z M46.4,354L354,661.7L661.7,354L354,46.4L46.4,354z"/>
</g>
<g>
	<path class="st4" d="M380.5,243.7c20.9,0,41.8,0,62.7,0c6.5,0,8,1.5,8,7.9c0,15.9,0,31.8,0,47.6c0,5.7-1.7,7.4-7.3,7.4
		c-42.4,0-84.8,0-127.3,0c-5.4,0-7.2-1.7-7.2-7.1c0-16.2,0-32.4,0-48.6c0-5.6,1.7-7.2,7.4-7.2C338.1,243.7,359.3,243.7,380.5,243.7z
		 M440.5,296.1c0-14,0-27.8,0-41.6c-40.3,0-80.3,0-120.3,0c0,14,0,27.8,0,41.6C360.4,296.1,400.3,296.1,440.5,296.1z"/>
	<g>
		<g>
			<path class="st6" d="M271.7,196.6c5.8,1.7,11.5,3.5,16.2,7.6c4.8,4.3,8.4,9.3,9.9,15.5c0.6,2.5,1.7,2.9,4,2.9
				c17.5-0.1,35,0,52.6,0c36.6,0,73.2,0,109.7,0c6.8,0,8.2,1.4,8.2,8.1c0,83.9,0,167.8,0,251.7c0,6.5-1.5,8-7.9,8
				c-13.6,0-27.3,0-40.9,0c-1.1,0-2.2,0-3.6,0c0,4.8,0,9.3,0,13.8c0,5.4-1.8,7.2-7.2,7.2c-48,0-95.9,0-143.9,0
				c-16.6,0-28.7-10-32.6-26.9c-0.2-0.9-0.1-1.8-0.1-2.8c0-83.8,0.1-167.6-0.1-251.4c0-16.3,10.1-30.1,26.1-33.1
				c0.4-0.1,0.7-0.3,1.1-0.5C266,196.6,268.8,196.6,271.7,196.6z M461.6,479.8c0-82.2,0-164.2,0-246.4c-54.2,0-108.3,0-162.4,0
				c0,82.3,0,164.3,0,246.4C353.3,479.8,407.2,479.8,461.6,479.8z M288.4,456.3c0-1.7,0-2.8,0-3.9c0-73.9,0-147.7,0-221.6
				c0-1.5,0-3.1-0.1-4.6c-0.5-8-6.2-15.4-13.8-17.9c-14.5-4.9-28,5.2-28,21.1c0,74.7,0,149.3,0,224c0,0.8,0.1,1.7,0.2,2.8
				C260.6,446,274.3,446,288.4,456.3z M409.1,490.5c-1.4,0-2.6,0-3.9,0c-20.7,0-41.4,0-62.1,0c-15.9,0-31.8,0-47.6,0
				c-5.2,0-7-1.9-7.1-7.1c0-1.6,0-3.3-0.1-4.9c-0.7-12.1-11.2-20.6-23.8-19.3c-11,1.2-19.5,12.3-17.8,23.6
				c1.6,10.9,10.4,18.1,22.4,18.1c45.6,0,91.2,0,136.8,0c1,0,2,0,3.2,0C409.1,497.4,409.1,494.2,409.1,490.5z"/>
			<path class="st6" d="M309.7,438.1c19.2,0,38.1,0,57.2,0c0,3.4,0,6.7,0,10.2c-19,0-38,0-57.2,0
				C309.7,444.9,309.7,441.7,309.7,438.1z"/>
			<path class="st6" d="M451.1,322.8c0,3.4,0,6.6,0,10.1c-19.2,0-38.2,0-57.5,0c0-3.4,0-6.6,0-10.1
				C412.7,322.8,431.7,322.8,451.1,322.8z"/>
			<path class="st6" d="M451.1,343.7c0,3.5,0,6.7,0,10.1c-19.1,0-38.1,0-57.4,0c0-3.3,0-6.6,0-10.1
				C412.7,343.7,431.8,343.7,451.1,343.7z"/>
			<path class="st6" d="M451.1,364.7c0,3.4,0,6.7,0,10.1c-19.2,0-38.3,0-57.5,0c0-3.4,0-6.6,0-10.1
				C412.7,364.7,431.7,364.7,451.1,364.7z"/>
			<path class="st6" d="M309.6,406.2c0-3.5,0-6.7,0-10.1c19.1,0,38.1,0,57.3,0c0,3.4,0,6.7,0,10.1
				C347.9,406.2,328.9,406.2,309.6,406.2z"/>
			<path class="st6" d="M366.9,427.2c-19.1,0-38.1,0-57.3,0c0-3.4,0-6.6,0-10.1c19.1,0,38.1,0,57.3,0
				C366.9,420.4,366.9,423.7,366.9,427.2z"/>
			<path class="st6" d="M367,469.4c-19.2,0-38.1,0-57.3,0c0-3.4,0-6.7,0-10.2c19.1,0,38.1,0,57.3,0C367,462.6,367,465.8,367,469.4z"
				/>
		</g>
		<path class="st4" d="M451.2,432.7c0,9.8,0,19.7,0,29.5c0,5.4-1.8,7.3-7.1,7.3c-19.8,0-39.5,0-59.3,0c-5.3,0-7.1-1.9-7.2-7.3
			c0-19.7,0-39.3,0-59c0-5.5,1.8-7.3,7.4-7.3c19.6,0,39.1,0,58.7,0c5.7,0,7.4,1.7,7.4,7.6C451.2,413.2,451.2,423,451.2,432.7z
			 M388.4,406.6c-0.1,1.1-0.2,2.1-0.2,3.1c0,15.4,0,30.7-0.1,46.1c0,2.6,0.7,3.3,3.3,3.3c15.5-0.1,30.9-0.1,46.4-0.1
			c0.9,0,1.8-0.1,2.7-0.2c0-17.5,0-34.8,0-52.2C423.2,406.6,405.9,406.6,388.4,406.6z"/>
		<path class="st4" d="M346.3,385.4c-9.9,0-19.9,0-29.8,0c-5.2,0-7-1.7-7-7c0-18,0-36,0-54.1c0-5.4,1.8-7.2,7.2-7.2
			c19.7,0,39.3,0,59,0c5.6,0,7.3,1.7,7.3,7.4c0,17.9,0,35.8,0,53.7c0,5.4-1.8,7.1-7.2,7.1C365.9,385.4,356.1,385.4,346.3,385.4z
			 M320.2,327.8c0,15.8,0,31.3,0,46.9c17.5,0,34.8,0,52.1,0c0-15.7,0-31.2,0-46.9C354.9,327.8,337.6,327.8,320.2,327.8z"/>
	</g>
</g>
</svg>
