<?xml version="1.0" encoding="utf-8"?>
<!-- Generator: Adobe Illustrator 27.3.1, SVG Export Plug-In . SVG Version: 6.00 Build 0)  -->
<svg version="1.1" id="Layer_1" xmlns="http://www.w3.org/2000/svg" xmlns:xlink="http://www.w3.org/1999/xlink" x="0px" y="0px"
	 viewBox="0 0 708.1 708.1" style="enable-background:new 0 0 708.1 708.1;" xml:space="preserve">
<style type="text/css">
	.st0{fill:#F3F3F3;}
	.st1{clip-path:url(#SVGID_00000165214077001167961180000012431602176378327681_);}
	.st2{fill:#C09E53;}
	.st3{fill-rule:evenodd;clip-rule:evenodd;fill:#415364;}
	.st4{fill:#C09F54;}
	.st5{fill-rule:evenodd;clip-rule:evenodd;fill:#C09F54;}
	.st6{fill:#415364;}
	.st7{fill-rule:evenodd;clip-rule:evenodd;}
</style>
<rect x="411.4" y="243" class="st0" width="86.9" height="62"/>
<rect x="185.8" y="416.3" class="st0" width="83" height="59.2"/>
<g>
	<path class="st2" d="M354,674.9L33.2,354L354,33.2L674.9,354L354,674.9z M46.4,354L354,661.7L661.7,354L354,46.4L46.4,354z"/>
</g>
<g>
	<g>
		<g>
			<g>
				<path class="st6" d="M354,359.4c-2.8,0-5.1,2.3-5.1,5.1s2.3,5.1,5.1,5.1c2.8,0,5.1-2.3,5.1-5.1S356.9,359.4,354,359.4z"/>
			</g>
		</g>
	</g>
	<g>
		<g>
			<g>
				<path class="st6" d="M480.5,277.1h-15.4v-15.4c0-2.8-2.3-5.1-5.1-5.1h-81.1c-9.1,0-17.8,3-24.8,8.6c-7.1-5.5-15.7-8.6-24.8-8.6
					h-81.1c-2.8,0-5.1,2.3-5.1,5.1v15.4h-15.4c-2.8,0-5.1,2.3-5.1,5.1V457c0,2.8,2.3,5.1,5.1,5.1h93.2c5.9,0,11.2,3.3,13.8,8.5
					c3.7,7.4,11.2,12,19.5,12c8.1,0,15.7-4.6,19.5-12c1.3-2.6,3.3-4.7,5.7-6.2c2.4-1.5,5.3-2.3,8.1-2.3h93.2c2.8,0,5.1-2.3,5.1-5.1
					V282.2C485.7,279.4,483.4,277.1,480.5,277.1z M253.3,266.8h76c7.3,0,14.2,2.6,19.7,7.4v69.7c0,2.8,2.3,5.1,5.1,5.1
					c2.8,0,5.1-2.3,5.1-5.1v-69.7c5.5-4.8,12.4-7.4,19.7-7.4h76v164.5h-76c-7,0-13.7,1.8-19.7,5.1v-51.4c0-2.8-2.3-5.1-5.1-5.1
					c-2.8,0-5.1,2.3-5.1,5.1v51.4c-5.9-3.3-12.7-5.1-19.7-5.1h-76V266.8z M475.4,451.9h-88.1c-4.8,0-9.4,1.3-13.5,3.8
					c-4.1,2.5-7.3,6.1-9.5,10.4c-1.9,3.8-5.9,6.4-10.3,6.4c-4.4,0-8.4-2.5-10.3-6.4c-4.4-8.8-13.2-14.2-23-14.2h-88.1V287.4H243
					v149.1c0,2.8,2.3,5.1,5.1,5.1h81.1c8,0,15.5,3.1,21.2,8.8c1,1,2.3,1.5,3.6,1.5c1.4,0,2.7-0.5,3.6-1.5c5.7-5.7,13.2-8.8,21.2-8.8
					H460c2.8,0,5.1-2.3,5.1-5.1V287.4h10.3V451.9z"/>
			</g>
		</g>
	</g>
	<g>
		<g>
			<g>
				<path class="st4" d="M333.5,287.4h-64.8c-2.8,0-5.1,2.3-5.1,5.1v30.8c0,2.8,2.3,5.1,5.1,5.1h64.8c2.8,0,5.1-2.3,5.1-5.1v-30.8
					C338.6,289.7,336.3,287.4,333.5,287.4z M328.3,318.2h-54.5v-20.6h54.5V318.2z"/>
			</g>
		</g>
	</g>
	<g>
		<g>
			<g>
				<path class="st4" d="M439.4,287.4h-64.8c-2.8,0-5.1,2.3-5.1,5.1v30.8c0,2.8,2.3,5.1,5.1,5.1h64.8c2.8,0,5.1-2.3,5.1-5.1v-30.8
					C444.5,289.7,442.2,287.4,439.4,287.4z M434.3,318.2h-54.5v-20.6h54.5V318.2z"/>
			</g>
		</g>
	</g>
	<g>
		<g>
			<g>
				<path class="st4" d="M333.5,338.8h-64.8c-2.8,0-5.1,2.3-5.1,5.1c0,2.8,2.3,5.1,5.1,5.1h64.8c2.8,0,5.1-2.3,5.1-5.1
					C338.6,341.1,336.3,338.8,333.5,338.8z"/>
			</g>
		</g>
	</g>
	<g>
		<g>
			<g>
				<path class="st4" d="M439.4,338.8h-64.8c-2.8,0-5.1,2.3-5.1,5.1c0,2.8,2.3,5.1,5.1,5.1h64.8c2.8,0,5.1-2.3,5.1-5.1
					C444.5,341.1,442.2,338.8,439.4,338.8z"/>
			</g>
		</g>
	</g>
	<g>
		<g>
			<g>
				<path class="st4" d="M333.5,359.4h-64.8c-2.8,0-5.1,2.3-5.1,5.1c0,2.8,2.3,5.1,5.1,5.1h64.8c2.8,0,5.1-2.3,5.1-5.1
					C338.6,361.7,336.3,359.4,333.5,359.4z"/>
			</g>
		</g>
	</g>
	<g>
		<g>
			<g>
				<path class="st4" d="M333.5,379.9h-64.8c-2.8,0-5.1,2.3-5.1,5.1c0,2.8,2.3,5.1,5.1,5.1h64.8c2.8,0,5.1-2.3,5.1-5.1
					C338.6,382.2,336.3,379.9,333.5,379.9z"/>
			</g>
		</g>
	</g>
	<g>
		<g>
			<g>
				<path class="st4" d="M333.5,400.5h-64.8c-2.8,0-5.1,2.3-5.1,5.1c0,2.8,2.3,5.1,5.1,5.1h64.8c2.8,0,5.1-2.3,5.1-5.1
					C338.6,402.8,336.3,400.5,333.5,400.5z"/>
			</g>
		</g>
	</g>
	<g>
		<g>
			<g>
				<path class="st4" d="M439.4,359.4h-64.8c-2.8,0-5.1,2.3-5.1,5.1c0,2.8,2.3,5.1,5.1,5.1h64.8c2.8,0,5.1-2.3,5.1-5.1
					C444.5,361.7,442.2,359.4,439.4,359.4z"/>
			</g>
		</g>
	</g>
	<g>
		<g>
			<g>
				<path class="st4" d="M439.4,379.9h-64.8c-2.8,0-5.1,2.3-5.1,5.1c0,2.8,2.3,5.1,5.1,5.1h64.8c2.8,0,5.1-2.3,5.1-5.1
					C444.5,382.2,442.2,379.9,439.4,379.9z"/>
			</g>
		</g>
	</g>
	<g>
		<g>
			<g>
				<path class="st4" d="M439.4,400.5h-64.8c-2.8,0-5.1,2.3-5.1,5.1c0,2.8,2.3,5.1,5.1,5.1h64.8c2.8,0,5.1-2.3,5.1-5.1
					C444.5,402.8,442.2,400.5,439.4,400.5z"/>
			</g>
		</g>
	</g>
</g>
</svg>
