<?xml version="1.0" encoding="utf-8"?>
<!-- Generator: Adobe Illustrator 27.3.1, SVG Export Plug-In . SVG Version: 6.00 Build 0)  -->
<svg version="1.1" id="Layer_1" xmlns="http://www.w3.org/2000/svg" xmlns:xlink="http://www.w3.org/1999/xlink" x="0px" y="0px"
	 viewBox="0 0 708.1 708.1" style="enable-background:new 0 0 708.1 708.1;" xml:space="preserve">
<style type="text/css">
	.st0{fill:#F3F3F3;}
	.st1{clip-path:url(#SVGID_00000138562684268454429230000003669007277275131305_);}
	.st2{fill:#C09E53;}
	.st3{fill-rule:evenodd;clip-rule:evenodd;fill:#415364;}
	.st4{fill:#C09F54;}
	.st5{fill-rule:evenodd;clip-rule:evenodd;fill:#C09F54;}
	.st6{fill:#415364;}
	.st7{fill-rule:evenodd;clip-rule:evenodd;}
</style>
<rect x="386.4" y="200.3" class="st0" width="86.9" height="62"/>
<rect x="223.7" y="454.5" class="st0" width="83" height="59.2"/>
<g>
	<path class="st2" d="M354,674.9L33.2,354L354,33.2L674.9,354L354,674.9z M46.4,354L354,661.7L661.7,354L354,46.4L46.4,354z"/>
</g>
<g>
	<g>
		<path class="st6" d="M215.9,238c0.5-1.6,0.9-3.3,1.5-4.9c3.6-10.3,13.1-17.2,24-17.2c12.7,0,25.4-0.1,38,0c1.5,0,3.5,0.8,4.3,2
			c1.9,2.6-0.3,6-3.8,6c-5.9,0.1-11.9,0-17.8,0c-0.9,0-1.7,0-2.8,0c0.2,0.5,0.3,0.8,0.4,0.9c4.4,5.2,6.2,11.2,6.1,18
			c-0.1,13.3,0,26.6-0.1,39.9c0,2.3,0.8,3.4,2.7,4.2c3.6,1.6,7.2,3.3,10.6,5.4c1.3,0.8,2.6,2.5,2.6,3.8c0,1.3-1.3,3.1-2.5,3.9
			c-3.6,2.3-7.5,4.2-11.4,6.1c-1.5,0.8-2,1.7-2,3.3c0,33,0,66,0,99c0,1.7,0.6,2.5,2.1,3.2c6.6,3,13.2,6.1,19.8,9.2
			c1.8,0.8,3.3,1.8,3.3,4.1c0.1,2.4-1.5,3.5-3.3,4.4c-6.7,3.2-13.4,6.5-20.1,9.9c-0.9,0.4-1.7,1.8-1.8,2.8c-0.1,8-0.1,16-0.1,24
			c0,4.3,1.3,8.1,4,11.5c4.4,5.4,11.4,7.6,17.6,5.5c6.9-2.3,11.7-8.5,12-15.7c0.1-3.2,0-6.5,0.1-9.7c0-5,1.1-6.1,6-6.1
			c14.8,0,29.7,0,44.5,0c26.4,0,52.9,0,79.3,0c1.1,0,2.1,0,3.5,0c0-2.1,0-3.9,0-5.8c0-9.4,0-18.7,0-28.1c0-1.5-0.4-2.4-1.8-3.2
			c-3.9-2.1-7.8-4.2-11.4-6.6c-1.3-0.9-2.7-2.7-2.7-4.1c0-1.2,1.5-3,2.8-3.7c3.7-2.2,7.7-3.9,11.5-5.9c0.7-0.4,1.5-1.2,1.6-1.8
			c0.1-5.9,0.1-11.8,0.1-18c-9.5,5.3-18.6,5.1-27.9-0.8c-6.5,6.6-13,13.2-19.4,19.8c-0.6,0.6-1.2,1.3-1.9,1.9
			c-1.8,1.4-3.7,1.3-5.3-0.3c-1.7-1.6-1.8-3.7-0.2-5.5c2.2-2.4,4.6-4.6,6.9-6.9c4.8-4.9,9.6-9.7,14.2-14.4c-1.2-3.3-2.7-6.5-3.4-9.9
			c-1.6-8.1,0.7-15.4,6.5-21.3c9.6-9.8,19.3-19.3,28.9-29.1c0.9-0.9,1.7-2.6,1.7-3.9c0.1-20.5,0.1-41,0.1-61.5
			c0-11.3-7.4-18.7-18.8-18.7c-35.4,0-70.9,0-106.3,0c-2.4,0-4.6-0.3-5.1-3.2c-0.5-2.6,1-4.7,3.6-4.9c0.8-0.1,1.6,0,2.4,0
			c34.9,0,69.8,0,104.7,0c16.9,0,27.6,10.7,27.6,27.6c0,17.6,0,35.2,0,52.9c0,1,0,1.9,0,3.3c1.1-0.7,1.8-1.1,2.5-1.6
			c13.2-8.9,27.6-14.6,43.4-16.6c3.8-0.5,5.8,1.5,5.3,5.4c-2.4,17-8.6,32.4-18.8,46.2c-0.5,0.7-1.1,1.5-1.7,2.1
			c-1.6,1.4-3.5,1.5-5.2,0.2c-1.6-1.3-2-3-1.1-4.8c0.4-0.8,1-1.5,1.5-2.2c7.8-10.6,13.2-22.4,16-35.3c0.2-0.8,0.2-1.5,0.3-2.6
			c-8.4,1.5-16.2,4.1-23.6,7.8c-8.6,4.2-16.4,9.6-23.3,16.4c-9.4,9.3-18.8,18.6-28.1,28c-5.4,5.5-6.4,13.2-2.6,19.4
			c0.7-0.6,1.3-1.2,1.9-1.8c11.9-11.9,23.8-23.7,35.8-35.6c0.6-0.6,1.3-1.3,2-1.8c1.7-1.2,3.4-1,4.9,0.4c1.5,1.5,1.9,3.2,0.7,5.1
			c-0.5,0.7-1.2,1.3-1.8,2c-11.9,11.8-23.7,23.6-35.6,35.4c-0.7,0.7-1.6,1.1-2.6,1.8c6.3,4.3,14.4,3.6,19.7-1.6
			c6.3-6,12.3-12.4,18.6-18.4c1-1,3.1-1.8,4.4-1.5c3.2,0.7,3.9,4.3,1.5,6.8c-4.1,4.3-8.4,8.3-12.5,12.7c-0.9,1-1.6,2.6-1.6,3.9
			c-0.1,8.5-0.1,16.9,0,25.4c0,2.8-1,4.6-3.5,5.7c-2.6,1.2-5.1,2.5-8.1,4c3,1.7,5.7,3.3,8.4,4.7c2.3,1.2,3.3,3,3.3,5.7
			c-0.1,11.2,0,22.5,0,33.7c0,1,0,1.9,0,3.2c3.2,0,6.1,0,9.1,0c9.1,0,18.2,0,27.3,0c4.2,0,5.5,1.3,5.4,5.5
			c-0.1,4.8,0.2,9.6-0.6,14.3c-1.8,10.5-9.9,18.2-20.3,20.2c-0.5,0.1-1,0.3-1.5,0.5c-60.1,0-120.2,0-180.3,0
			c-0.2-0.1-0.5-0.3-0.7-0.3c-14.1-3.2-21.6-12.6-21.7-27c0-8.5,0.1-17.1,0-25.6c0-2.9,1-4.7,3.7-5.9c5.3-2.4,10.6-5.1,16.2-7.9
			c-1.1-0.6-1.8-1-2.5-1.3c-4.7-2.2-9.4-4.5-14.1-6.6c-2.3-1-3.3-2.6-3.3-5c0-35.5,0-71,0-106.5c0-2.4,0.9-4.1,3.1-5.2
			c2.7-1.3,5.2-2.8,8.3-4.4c-2.9-1.5-5.2-2.8-7.7-3.8c-2.8-1.2-3.8-3.2-3.7-6.1c0.1-5.6,0-11.1,0-16.7c0-2.6,0-5.1,0-8
			c-1.3,0-2.3,0-3.2,0c-11,0-21.9-0.1-32.9,0c-2.5,0-4.4-0.6-5.7-2.7C215.9,252.1,215.9,245.1,215.9,238z M300.6,484.1
			c1.6,0,2.3,0,3,0c50.8,0,101.6-0.1,152.4,0.1c11.1,0,21.2-8.5,18.2-24.2c-55.4,0-110.9,0-166.6,0
			C308.2,468.6,307.3,476.9,300.6,484.1z M257.6,253.6c0-4.7,0.3-9.2-0.1-13.8c-0.6-8.2-7.3-14.9-15.5-15.7
			c-7.2-0.7-15.5,4.8-17.1,12.5c-1.2,5.5-0.8,11.3-1.2,17C235.4,253.6,246.4,253.6,257.6,253.6z"/>
	</g>
	<path class="st2" d="M351.9,292.5c13.9,0,27.9,0,41.8,0c0.8,0,1.6-0.1,2.4,0c2.1,0.2,3.3,1.5,3.5,3.5c0.2,2-0.7,3.6-2.6,4.2
		c-1.1,0.3-2.3,0.4-3.4,0.4c-27.7,0-55.4,0-83,0c-0.4,0-0.9,0-1.3,0c-3.2-0.1-4.9-1.6-4.9-4.2c0-2.6,1.7-3.9,5-3.9
		C323.5,292.5,337.7,292.5,351.9,292.5z"/>
	<path class="st2" d="M351.9,429.1c-13.8,0-27.7,0-41.5,0c-1,0-2.2,0.3-2.9-0.2c-1.3-0.9-2.6-2.1-3.1-3.5c-0.6-1.8,0.5-3.4,2.3-4
		c1.1-0.4,2.3-0.4,3.4-0.4c27.9,0,55.7,0,83.6,0c1,0,2,0,2.9,0.2c2.1,0.6,3.1,2.1,2.9,4.3c-0.2,2-1.4,3.3-3.5,3.5
		c-0.9,0.1-1.8,0.1-2.7,0.1C379.6,429.1,365.8,429.1,351.9,429.1z"/>
	<path class="st2" d="M351.9,268.3c-14.3,0-28.6,0-42.9,0c-2.4,0-4.3-0.8-4.7-3.4c-0.4-2.3,1.1-4.3,3.4-4.6c0.9-0.1,1.8-0.1,2.7-0.1
		c27.7,0,55.4,0,83,0c0.5,0,1.1,0,1.6,0c2.8,0.1,4.6,1.8,4.5,4.2c-0.1,2.4-1.8,3.8-4.6,3.8C380.7,268.3,366.3,268.3,351.9,268.3z"/>
	<path class="st2" d="M341.4,356.7c10.3,0,20.7,0,31,0c0.8,0,1.6-0.1,2.4,0.1c2.1,0.5,3.3,1.9,3.2,4c0,2-1.2,3.3-3.2,3.8
		c-0.7,0.2-1.4,0.1-2.1,0.1c-21,0-42.1,0-63.1,0c-0.3,0-0.5,0-0.8,0c-2.9-0.1-4.6-1.7-4.6-4.2c0.1-2.4,1.7-3.9,4.5-3.9
		c4.9,0,9.9,0,14.8,0C329.6,356.7,335.5,356.7,341.4,356.7z"/>
	<path class="st2" d="M341.1,332.6c-10.2,0-20.5,0-30.7,0c-0.9,0-1.8,0-2.7-0.1c-2-0.3-3.2-1.5-3.4-3.6c-0.1-2.2,0.9-3.6,3-4.2
		c0.8-0.2,1.6-0.2,2.4-0.2c20.9,0,41.9,0,62.8,0c0.9,0,1.8,0,2.7,0.3c2,0.5,3,2,2.9,4c-0.1,2-1.2,3.4-3.3,3.7c-1,0.1-2,0.1-3,0.1
		C361.6,332.6,351.3,332.6,341.1,332.6z"/>
	<path class="st2" d="M327.6,397c-6.2,0-12.4,0-18.6,0c-2.3,0-4.1-0.7-4.7-3.2c-0.6-2.8,1.2-4.9,4.5-4.9c6.6-0.1,13.1,0,19.7,0
		c5.8,0,11.7,0,17.5,0c3.2,0,5,1.4,5.1,3.9c0.1,2.6-1.8,4.1-5.2,4.2C339.8,397.1,333.7,397,327.6,397z"/>
</g>
</svg>
